<svg width="692" height="78" viewBox="0 0 692 78" fill="none" xmlns="http://www.w3.org/2000/svg">
<path d="M68.264 0.0458984V19.4687H25.6159V29.5786H68.3324V46.6789H25.6159V58.3144H68.3779V77.7372H0.750977V0.0914482L68.264 0.0458984Z" fill="#009944"/>
<path d="M224.489 0.0684814V19.4685H181.841V29.6012H224.557V46.6787H181.841V58.3142H224.603V77.737H156.999V0.0912389L224.489 0.0684814Z" fill="#009944"/>
<path d="M535.435 0.0684814V19.4685H492.786V29.6012H535.503V46.6787H492.786V58.3142H535.548V77.737H467.944V0.0912389L535.435 0.0684814Z" fill="#009944"/>
<path d="M610.758 0.0684814V19.4685H568.132V29.6012H610.826V46.6787H568.132V58.3142H610.894V77.737H543.268V0.0912389L610.758 0.0684814Z" fill="#009944"/>
<path d="M152.126 0.0684814H125.713L112.506 51.3237L99.3223 0.0684814H72.9319L98.5254 77.7142H126.487L152.126 0.0684814Z" fill="#009944"/>
<path d="M295.872 41.2822C299.538 40.6674 302.203 37.4796 302.203 33.6314V31.992V29.7606V10.1101C302.203 9.99621 302.203 9.88234 302.203 9.76849C302.203 4.41754 298.013 0.0684814 292.662 0.0684814H290.613H288.791H232.299V77.6914H257.232L257.209 77.737V50.504H269.641V50.5496C273.899 50.5723 277.338 54.0334 277.338 58.3142C277.338 58.4052 277.338 58.4963 277.338 58.5874V77.7142H290.635H302.271V70.0179C302.271 69.9724 302.271 69.9268 302.271 69.8585V48.9101C302.225 45.062 299.561 41.8742 295.872 41.2822ZM257.163 19.4457H261.125C261.148 19.4457 261.194 19.4457 261.217 19.4457H273.626C275.767 19.4457 277.338 21.1763 277.338 23.3166V29.5329C277.338 31.6733 275.767 33.4038 273.626 33.4038H261.217C261.171 33.4038 261.125 33.4038 261.057 33.4038H257.141V19.4457H257.163Z" fill="#009944"/>
<path d="M453.669 41.2822C457.335 40.6674 459.999 37.4796 459.999 33.6314V31.992V29.7606V10.1101C459.999 9.99621 459.999 9.88234 459.999 9.76849C459.999 4.41754 455.809 0.0684814 450.458 0.0684814H448.409H446.564H390.072V77.6914H415.005L414.982 77.737V50.504H427.415V50.5496C431.673 50.5723 435.111 54.0334 435.111 58.3142C435.111 58.4052 435.111 58.4963 435.111 58.5874V77.7142H448.409H460.044V70.0179C460.044 69.9724 460.044 69.9268 460.044 69.8585V48.9101C460.044 45.062 457.357 41.8742 453.669 41.2822ZM414.96 19.4457H418.922C418.944 19.4457 418.99 19.4457 419.013 19.4457H431.422C433.563 19.4457 435.134 21.1763 435.134 23.3166V29.5329C435.134 31.6733 433.563 33.4038 431.422 33.4038H419.013C418.967 33.4038 418.922 33.4038 418.853 33.4038H414.937V19.4457H414.96Z" fill="#009944"/>
<path d="M382.17 24.9108V11.7042C382.17 5.30579 376.933 0.0458984 370.535 0.0458984H321.625C315.227 0.0458984 309.967 5.28302 309.967 11.7042V66.0562C309.967 72.4545 315.204 77.6916 321.625 77.6916H370.535C376.933 77.6916 382.17 72.4545 382.17 66.0562V32.6753H357.306V32.7209H344.099V49.0697H357.306V54.3751C357.306 56.5155 355.552 58.2688 353.412 58.2688H338.657C336.517 58.2688 334.763 56.5155 334.763 54.3751V23.3168C334.763 21.1765 336.517 19.4232 338.657 19.4232H353.412C355.552 19.4232 357.306 21.1765 357.306 23.3168V24.9108H382.17V24.9108Z" fill="#009944"/>
<path d="M691.751 0H666.932V42.7848L643.615 0.045515H618.773V77.6912H643.615V34.9292L666.932 77.6912H691.751V0Z" fill="#009944"/>
</svg>
