<?xml version="1.0" encoding="UTF-8"?>
<!DOCTYPE svg PUBLIC "-//W3C//DTD SVG 1.0//EN" "http://www.w3.org/TR/2001/REC-SVG-20010904/DTD/svg10.dtd">
<svg width="510" height="510" xmlns="http://www.w3.org/2000/svg">
  <title>Evergreen Logo roundel</title>
  <path d="M501.39 254.94a246.42 246.42 0 1 1-492.84 0C8.57 118.86 118.89 8.56 254.97 8.56c136.08 0 246.4 110.3 246.42 246.38" fill="#fff"/>
  <path d="M255 5C116.94 5.03 5.03 116.94 5 255c.02 138.07 111.93 250 250 250.03 138.06-.03 249.97-111.94 250-250C504.98 116.96 393.07 5.03 255 5m9.86 7.07a241.3 241.3 0 0 1 108.46 30.87 144.01 144.01 0 0 1-26.77 29.3A295.73 295.73 0 0 0 264.9 12.1m-19.79 0a295.84 295.84 0 0 0-81.57 60.04 140.91 140.91 0 0 1-26.26-29.51A241.27 241.27 0 0 1 245.14 12.1m3.63 4.93a463.48 463.48 0 0 0-45.49 78.36 137.77 137.77 0 0 1-34.75-19.68 290.66 290.66 0 0 1 80.24-58.68m12.52 0a290.6 290.6 0 0 1 80.3 58.71 140.76 140.76 0 0 1-34.87 19.5 463.76 463.76 0 0 0-45.43-78.2m-9.3 6.2v62.7a4.23 4.23 0 0 1 6.08-.33V23.23a453.87 453.87 0 0 1 43.01 74.13 148.08 148.08 0 0 1-38.53 7.95l1.07 5.86a155.67 155.67 0 0 0 40.03-8.4c9.75 22.38 17.75 45.94 22.6 72.7l5.53-2.63.1-.06c-4.98-26.38-12.96-49.88-22.6-72.1a148.27 148.27 0 0 0 36.59-20.57 252.79 252.79 0 0 1 49.63 80.22 413.7 413.7 0 0 1-57.78 15.36c.2.93.12 1.91-.28 2.81l-1.86 3.87a421.33 421.33 0 0 0 61.98-16.3 264.1 264.1 0 0 1 15.59 85.88h-21.23a4.23 4.23 0 0 1 .14 6.12h21.09c-.06 3.95-.2 7.84-.43 11.75l6.04.85c.28-4.23.45-8.4.47-12.6h79.4c-.53 42-12.34 80.92-31.54 115.28a328.22 328.22 0 0 0-17.3-9.33l-2.54 5.52c5.72 2.88 11.39 5.9 16.97 9.14a243.33 243.33 0 0 1-84.81 85.11 147.2 147.2 0 0 0-8.4-11.21 149.64 149.64 0 0 1-5.58 2.9c3.04 3.6 5.89 7.37 8.54 11.27a241.25 241.25 0 0 1-109.08 31.18 311.54 311.54 0 0 0 37.63-22.47 269.4 269.4 0 0 1-13.7 1.86A312.78 312.78 0 0 1 261.28 493c3.38-4.76 6.54-9.5 9.7-14.26-2.54.14-5.08.23-7.67.28-1.75 2.6-3.38 5.19-5.24 7.75v-7.6l-2.62.02-3.47-.08v7.66c-1.83-2.56-3.5-5.15-5.24-7.75-2.6-.08-5.16-.2-7.73-.33 3.19 4.79 6.35 9.52 9.76 14.31A312.04 312.04 0 0 1 221 477.15c-4.7-.56-9.37-1.26-14.03-2.08a309.77 309.77 0 0 0 38.16 22.83 241.3 241.3 0 0 1-108.46-30.84c2.85-4.34 5.92-8.37 9.13-12.23-1.86-.96-3.66-1.97-5.5-2.99a141.07 141.07 0 0 0-9.04 12.3 243.3 243.3 0 0 1-85.4-85.46c5.7-3.25 11.5-6.26 17.39-9.16-.9-1.84-1.7-3.72-2.54-5.56a331.52 331.52 0 0 0-17.75 9.36c-19.23-34.33-31-73.25-31.57-115.28h79.42c.03 4.06.2 8.06.43 12.1l6.06-.63c-.2-3.83-.37-7.6-.4-11.47h20.58a4.23 4.23 0 0 1 .08-6.09H96.87a264.1 264.1 0 0 1 15.7-86.24 431.3 431.3 0 0 0 62.07 16.37l-1.7-3.6a4.23 4.23 0 0 1-.25-3.05 427.88 427.88 0 0 1-58.06-15.44 252.73 252.73 0 0 1 49.58-79.97 143.1 143.1 0 0 0 36.5 20.75 333.66 333.66 0 0 0-22.52 71.87l.36.17 5.25 2.5a323.93 323.93 0 0 1 22.49-72.37 154.26 154.26 0 0 0 40.39 8.4l1.07-5.9a146.5 146.5 0 0 1-38.9-7.91c11.59-25.4 25.7-49.78 43.1-74.3M131.83 45.58a145.92 145.92 0 0 0 27.4 30.92 259.71 259.71 0 0 0-50.32 81.54A399.45 399.45 0 0 1 46.54 130a243.31 243.31 0 0 1 85.32-84.45m246.9.34a243.36 243.36 0 0 1 84.7 84.1 387.56 387.56 0 0 1-62.27 28.42 259.62 259.62 0 0 0-50.34-81.8 149.46 149.46 0 0 0 27.9-30.72M43.62 135.35c20.07 11.39 41.37 20.58 63.24 28.47a269.63 269.63 0 0 0-16.09 88.13H11.39c.54-42.56 12.6-81.99 32.27-116.6m422.7 0c19.64 34.67 31.73 74.07 32.27 116.6h-79.4a269.67 269.67 0 0 0-15.98-87.77c21.7-7.89 42.95-17.19 63.1-28.83m-275.34 43.4l18.24 8.66c7.67.9 15.33 1.66 23.03 2.14l1.12-6.09a444.06 444.06 0 0 1-42.39-4.73m127.82.25a456.34 456.34 0 0 1-41.9 4.45l1.12 6.1a437.7 437.7 0 0 0 22.77-1.98l18.01-8.57m-142.95 5.67a443.9 443.9 0 0 0-4.6 53.13l6.18-1.58a451.72 451.72 0 0 1 3.19-41.5l-4.8-10.05m158.34.56l-4.79 10.03c1.61 12.91 2.68 26.5 3.16 40.96l6.14 1.58a443.1 443.1 0 0 0-4.5-52.57m-162.92 87.15a447.2 447.2 0 0 0 4.68 52.9l4.8-10.09c-1.67-13-2.82-26.66-3.3-41.26l-6.18-1.55m167.42 0l-6.17 1.58a445.5 445.5 0 0 1-3.24 40.7l4.8 10.06a444.78 444.78 0 0 0 4.61-52.34m-106.74 46.42c-5.88.38-11.75.87-17.61 1.5l-17.76 8.45c12.1-1.75 24.24-3.1 36.5-3.86l-1.13-6.09m46.4.03l-1.13 6.11a440.1 440.1 0 0 1 36.02 3.58l-17.45-8.28c-5.8-.6-11.6-1.05-17.44-1.41m56.23 6.96l2.81 5.86c.12.34.23.65.29 1.02a412.53 412.53 0 0 1 49.04 12.48c.87-1.77 1.69-3.72 2.53-5.58a421.14 421.14 0 0 0-54.67-13.8m-159 .27c-18.39 3.4-36.54 8-54.33 13.76.9 1.86 1.86 3.66 2.81 5.5 15.91-5.06 32.1-9.18 48.48-12.35.06-.45.17-.88.37-1.3l2.68-5.6m150.68 8.67a325.64 325.64 0 0 1-22.24 71.6c-13-4.63-26.55-7.5-40.3-8.55l-1.1 5.87c11.72.76 23.25 3.18 34.55 6.76 4.45-.84 8.74-1.72 12.82-2.82 9.3-21.7 17.03-44.53 21.9-70.18a4.23 4.23 0 0 1-.16-.08l-5.47-2.6m-142.56.15l-5.16 2.45-.45.2c4.82 25.28 12.4 47.88 21.53 69.33a164 164 0 0 0 13.53 3.24c11.27-3.52 22.77-5.92 34.47-6.6l-1.1-5.91a154.37 154.37 0 0 0-40.67 8.6 325.43 325.43 0 0 1-22.15-71.31" fill="#fe3501"/>
  <g fill="#008738">
    <path d="M286.68 419.63l13.1 52.6 16.64-4.15-4.57-18.3 9.07-2.25c2.4-.59 5.02.76 5.64 3.16l3.47 13.98 16.63-4.14-5.05-20.16c-.79-3.18-2.7-3.49-4.06-3.26 1.33-.37 2.82-1.7 2.03-4.9l-4.17-16.72c-1.52-6.15-4.65-6.85-9.02-5.75l-39.71 9.89m19.84 8.88l11.13-2.8c1.7-.39 2.77.37 3.16 2.07l1.1 4.34c.42 1.69-.23 2.65-1.92 3.1l-11.1 2.73-2.37-9.44"/>
    <path d="M378.45 369.54l24.6-40.13 11.45 7.04-15.67 25.5 6.23 3.84 15.67-25.53 10.28 6.3-15.67 25.54 6.88 4.2 15.67-25.53 11.36 6.99-24.6 40.1-46.2-28.32"/>
    <path d="M336.68 402.35l37.77-28.13 7.97 10.77-24.01 17.9 4.37 5.86 24.04-17.9 7.19 9.67-24.02 17.9 4.8 6.48 24.04-17.93 7.97 10.71-37.76 28.13-32.36-43.46"/>
    <path d="M97.02 275.29l5.98 46.7-13.3 1.7-3.8-29.71-7.25.93 3.77 29.7-11.97 1.53-3.78-29.71-8 1.01 3.8 29.71-13.25 1.7-5.94-46.68 53.74-6.88"/>
    <path d="M405.03 324.53l2.82-17.42 31.17-11.1-28.58-4.65 2.82-17.5 53.5 8.7-2.82 17.5-31.71 11.03 29.11 4.73-2.82 17.42-53.49-8.71"/>
    <path d="M233.86 472.36a11.2 11.2 0 0 1-3.33-2.82c-1.24-1.63-1.26-2.42-1.26-23.25 0-29.34-2.06-27.14 25.05-27.14 16.24 0 18.6.1 20.46 1.07 3.44 1.75 4.6 4.42 4.6 10.82v5.5l-17 .05v-1.69c0-1.13-1.35-2.34-2.48-2.34h-10.74c-1.24 0-2.67 1.36-2.67 2.6v22.1c0 1.26 1.4 2.73 2.67 2.73h10.71c1.24 0 2.51-1.5 2.51-2.77v-3.94h-9.16v-11.22l26.16-.06v12.52c0 13.64-.25 14.88-3.55 17.3-1.67 1.24-2.54 1.36-20.8 1.53-17.22.14-19.25 0-21.14-1"/>
    <path d="M177.49 406.89l-12.9 52.62 16.62 4.09 4.48-18.3 9.08 2.23c2.4.6 4.11 3.02 3.52 5.41l-3.44 14.01 16.63 4.06 4.96-20.18c.76-3.18-.79-4.34-2.08-4.8 1.32.32 3.3-.13 4.08-3.37l4.09-16.72c1.52-6.17-.93-8.23-5.27-9.3l-39.77-9.75m13.42 17.1l11.13 2.71c1.69.43 2.25 1.61 1.86 3.3l-1.07 4.34c-.4 1.7-1.41 2.26-3.1 1.86l-11.14-2.73 2.32-9.47"/>
    <path d="M136.14 374l37.57 28.35-8.09 10.71-23.9-18.03-4.4 5.83 23.9 18.04-7.27 9.64-23.9-18.04-4.85 6.43 23.9 18.03-8.06 10.66-37.54-28.38L136.14 374"/>
    <path d="M105.76 326.22l8.93 15.95-25.76 25.09 34.84-8.9 9 16-56.1 10.8-9.41-16.83 38.5-42.1"/>
    <path d="M329.8 329.69l-54.26-25.79-20.12 108.6-20.12-108.6-54.26 25.79 25.79-54.26-79.2-20.12 79.2-20.12-25.79-54.26 54.26 25.79L255.42 97.5l20.15 109.22 54.26-25.79-25.8 54.26 78.42 20.12-78.41 20.12 25.79 54.26"/>
  </g>
</svg>
